<svg xmlns="http://www.w3.org/2000/svg" viewBox="0 0 404.86 557.62"><defs><style>.cls-1{fill:#342e2a;}.cls-1,.cls-2,.cls-3,.cls-4,.cls-6,.cls-7,.cls-8,.cls-9{fill-rule:evenodd;}.cls-2{fill:#4e4542;}.cls-3{fill:#94ac3c;}.cls-4{fill:#a7bf39;}.cls-5{fill:#708437;}.cls-6{fill:#f04e23;}.cls-7{fill:#f26232;}.cls-8{fill:#d43c27;}.cls-9{fill:#fff;}</style></defs><title>Marker</title><g id="Lag_2" data-name="Lag 2"><g id="Vectorportal.com"><path class="cls-1" d="M404.86,214.44c-3.66,50-15,88.51-26.89,126.1-30.15-19.87-223.32-146.36-221.32-147l208.23-2.69Z"/><path class="cls-2" d="M.29,252.41C4.5,294.2,14.15,337.87,36.76,376.13L55.62,387.5l1.24,16.9c22.83,26.84,54.41,49.39,98.18,64.35-.49-13.47.63-26.28,8.93-38.14,6.77,46.88,17.57,91.43,43.87,127,22.64-23.93,51.53-78.44,51.58-111.62,9.79,12.11,15.33,28.16,16.94,47,68.86-40.29,111.73-118.59,124.15-207.63C267,272.55,133.79,265.18.29,252.41Z"/><path class="cls-1" d="M322.27,456.85c42.15-43.24,68.87-104.32,78.24-171.52-34.62-3.32-69.22-6.26-103.81-9L116.56,338.67c80.65,23.27,161.31,23.7,242-.25C356.49,383.19,343.8,422.35,322.27,456.85Z"/><path class="cls-1" d="M155,468.75c-.49-13.47.63-26.28,8.93-38.14q-22.53-17.79-23.48-74.1c-12.7,42.51-4.58,79,14.55,112.24ZM55.62,387.5q-1.26-25.11-2.51-50.23c-3.35,18-7.85,33.22-16.35,38.86L55.62,387.5ZM207.84,557.62c22.64-23.93,51.53-78.44,51.58-111.62,9.79,12.11,15.33,28.16,16.94,47,18-55.72-3.34-94.46-44.85-124.51C245.06,435.79,235.35,498.49,207.84,557.62Z"/><path class="cls-3" d="M207.84,145c91.58,0,169.32,29.07,197,69.43A357.75,357.75,0,0,0,326,205.83a350.63,350.63,0,0,0-96.13,13c72.86,4.52,135.39,30.09,170.63,66.47C369.64,322.67,295,349,207.84,349,93.05,349,0,303.34,0,247S93.05,145,207.84,145Z"/><path class="cls-4" d="M179.17,169.46c56.36,0,104.61,15.31,124.54,37a343.11,343.11,0,0,0-73.83,12.37,337.41,337.41,0,0,1,83,15.4C306.59,264.4,249.13,288,179.17,288,105,288,44.84,261.46,44.84,228.73S105,169.46,179.17,169.46Z"/><ellipse class="cls-5" cx="134.32" cy="221.68" rx="94.34" ry="38.04"/><path class="cls-6" d="M202.43,0a99.38,99.38,0,0,1,97.83,116.52c-7.39,55.51-39.37,96.64-97.83,122.28C144,213.16,112,172,104.6,116.52A99.38,99.38,0,0,1,202.43,0Zm0,41.1a58.22,58.22,0,1,0,58.22,58.22A58.21,58.21,0,0,0,202.43,41.1Z"/><path class="cls-7" d="M208.49.19a99.37,99.37,0,0,1,91.77,116.33c-3.79,28.46-14,53.14-31,73.89A101,101,0,1,1,208.49.19ZM202.43,41.1a58.22,58.22,0,1,0,58.22,58.22A58.21,58.21,0,0,0,202.43,41.1Z"/><path class="cls-8" d="M207.36,26.41A72.37,72.37,0,1,1,135,98.78a72.37,72.37,0,0,1,72.37-72.37ZM202.43,41.1a58.22,58.22,0,1,0,58.22,58.22A58.21,58.21,0,0,0,202.43,41.1Z"/><path class="cls-9" d="M220.75,24.18A8,8,0,1,0,217,13.52a8,8,0,0,0,3.74,10.66Zm34,9a2.93,2.93,0,1,0-1.37-3.9,2.91,2.91,0,0,0,1.37,3.9Zm-18.22-6.85a4.64,4.64,0,1,1,6.18-2.17A4.64,4.64,0,0,1,236.54,26.38Z"/></g></g></svg>