<svg xmlns="http://www.w3.org/2000/svg" viewBox="0 0 504.22 514.9"><defs><style>.cls-1{fill:#d4c290;}.cls-1,.cls-11,.cls-2,.cls-3,.cls-6,.cls-8{fill-rule:evenodd;}.cls-2,.cls-4{fill:#8c391d;}.cls-3{fill:#be5b28;}.cls-5,.cls-8{fill:#febb12;}.cls-6,.cls-7{fill:#ffd862;}.cls-9{fill:#ebddb5;}.cls-10{fill:#e3d3a6;}.cls-11{fill:#f2e7c9;}.cls-12{fill:#cfbd8b;}</style></defs><title>Rules</title><g id="Lag_2" data-name="Lag 2"><g id="Vectorportal.com"><polygon class="cls-1" points="27.93 124.37 94.22 124.37 95.1 139.67 96.85 170.29 98.61 139.67 99.49 124.37 131.05 124.37 131.06 124.47 132.81 155.08 134.57 124.47 134.57 124.37 188.31 124.37 189.31 141.68 190.3 124.37 251.43 124.37 252.03 134.89 253.79 165.51 255.54 134.89 256.14 124.37 297.16 124.37 298.69 151.14 300.23 124.37 390.12 124.37 390.17 125.15 391.92 155.77 393.68 125.15 393.73 124.37 463.44 124.37 463.44 390.53 388.51 390.53 388.1 383.35 386.34 352.73 384.59 383.35 384.18 390.53 304.84 390.53 303.59 368.81 302.35 390.53 284.23 390.53 282.83 366.17 281.43 390.53 174.46 390.53 173.89 380.61 172.14 349.99 170.38 380.61 169.81 390.53 115.13 390.53 113.79 367.2 112.03 336.58 110.28 367.2 108.94 390.53 104.1 390.53 103.51 380.28 101.75 349.66 100 380.28 99.41 390.53 27.93 390.53 27.93 124.37"/><path class="cls-2" d="M34.73,0A18.21,18.21,0,0,1,52.94,18.21c0,10.06-8.16,92.9-18.21,92.9S16.52,28.27,16.52,18.21A18.21,18.21,0,0,1,34.73,0Z"/><path class="cls-3" d="M34.73,4.22a4.2,4.2,0,0,1,0,8.39,5.6,5.6,0,0,0-5.6,5.6c0,4.18.48,8.88.93,13.22.06.59.12,1.22.28,2.83q.64,6.57,1.54,14.13c.58,4.79,1.17,9.4,1.8,13.82a4.18,4.18,0,1,1-8.29,1.15c-.69-4.82-1.3-9.49-1.83-14S22.51,40.15,22,35c0-.21-.15-1.45-.28-2.76-.48-4.64-1-9.67-1-14.07a14,14,0,0,1,14-14ZM27,74.08a4.18,4.18,0,0,1,8.26-1.35c.16,1,.4,2.42.73,4.28.28,1.6.54,3,.77,4.24a4.19,4.19,0,1,1-8.23,1.57c-.31-1.65-.58-3.1-.8-4.37C27.56,77.43,27.31,76,27,74.08Z"/><rect class="cls-4" y="111.11" width="69.45" height="13.25" rx="6.63"/><path class="cls-3" d="M8.4,112.74H38.25a3.53,3.53,0,0,1,3.52,3.52h0a3.53,3.53,0,0,1-3.52,3.52H8.4a3.53,3.53,0,0,1-3.51-3.52h0A3.52,3.52,0,0,1,8.4,112.74Z"/><path class="cls-3" d="M52.76,112.74H47.81a3.53,3.53,0,0,0-3.52,3.52h0a3.53,3.53,0,0,0,3.52,3.52h4.95a3.54,3.54,0,0,0,3.52-3.52h0A3.53,3.53,0,0,0,52.76,112.74Z"/><rect class="cls-5" x="18.8" y="97.86" width="31.85" height="13.25" rx="6.63"/><path class="cls-6" d="M24,99.56H34.74a3.53,3.53,0,0,1,3.52,3.52h0a3.53,3.53,0,0,1-3.52,3.52H24a3.53,3.53,0,0,1-3.52-3.52h0A3.54,3.54,0,0,1,24,99.56Z"/><rect class="cls-7" x="39.47" y="99.56" width="6.51" height="7.04" rx="3.26"/><path class="cls-2" d="M34.73,514.9a18.21,18.21,0,0,0,18.21-18.21c0-10.06-8.16-92.9-18.21-92.9s-18.21,82.84-18.21,92.9A18.21,18.21,0,0,0,34.73,514.9Z"/><path class="cls-3" d="M34.73,510.68a4.2,4.2,0,0,0,0-8.39,5.6,5.6,0,0,1-5.6-5.6c0-4.18.48-8.88.93-13.22.06-.59.12-1.22.28-2.83q.64-6.57,1.54-14.13c.58-4.79,1.17-9.4,1.8-13.83a4.18,4.18,0,1,0-8.29-1.14c-.69,4.82-1.3,9.49-1.83,14s-1,9.23-1.55,14.33c0,.22-.15,1.46-.28,2.77-.48,4.64-1,9.67-1,14.07a14,14,0,0,0,14,14ZM27,440.82a4.18,4.18,0,1,0,8.26,1.34c.16-1,.4-2.41.73-4.27.28-1.6.54-3,.77-4.24a4.19,4.19,0,0,0-8.23-1.57c-.31,1.65-.58,3.1-.8,4.37C27.56,437.47,27.31,439,27,440.82Z"/><path class="cls-2" d="M6.63,403.79h56.2a6.64,6.64,0,0,0,6.62-6.63h0a6.65,6.65,0,0,0-6.62-6.63H6.63A6.65,6.65,0,0,0,0,397.16H0A6.64,6.64,0,0,0,6.63,403.79Z"/><path class="cls-3" d="M8.4,402.16H38.25a3.53,3.53,0,0,0,3.52-3.52h0a3.53,3.53,0,0,0-3.52-3.52H8.4a3.53,3.53,0,0,0-3.51,3.52h0A3.52,3.52,0,0,0,8.4,402.16Z"/><path class="cls-3" d="M52.76,402.16H47.81a3.53,3.53,0,0,1-3.52-3.52h0a3.53,3.53,0,0,1,3.52-3.52h4.95a3.54,3.54,0,0,1,3.52,3.52h0A3.53,3.53,0,0,1,52.76,402.16Z"/><path class="cls-8" d="M25.43,417H44a6.64,6.64,0,0,0,6.62-6.62h0A6.64,6.64,0,0,0,44,403.79H25.43a6.64,6.64,0,0,0-6.63,6.63h0A6.64,6.64,0,0,0,25.43,417Z"/><path class="cls-6" d="M24,415.34H34.74a3.53,3.53,0,0,0,3.52-3.52h0a3.53,3.53,0,0,0-3.52-3.52H24a3.53,3.53,0,0,0-3.52,3.52h0A3.54,3.54,0,0,0,24,415.34Z"/><rect class="cls-7" x="39.47" y="408.3" width="6.51" height="7.04" rx="3.26"/><rect class="cls-9" x="6.63" y="124.37" width="56.2" height="266.17"/><rect class="cls-10" x="45.22" y="124.37" width="17.61" height="266.17"/><path class="cls-11" d="M13.94,142.27a7,7,0,1,1,14,0v29.61a7,7,0,0,1-14,0V142.27Zm0,55.07a7,7,0,1,1,14,0V368.47a7,7,0,1,1-14,0Z"/><path class="cls-2" d="M469.49,0A18.21,18.21,0,0,1,487.7,18.21c0,10.06-8.15,92.9-18.21,92.9s-18.21-82.84-18.21-92.9A18.21,18.21,0,0,1,469.49,0Z"/><path class="cls-3" d="M469.49,4.22a4.2,4.2,0,1,1,0,8.39,5.6,5.6,0,0,0-5.6,5.6c0,4.18.49,8.88.93,13.22.06.59.13,1.22.28,2.83q.64,6.57,1.55,14.13.86,7.19,1.79,13.82a4.18,4.18,0,1,1-8.29,1.15c-.69-4.82-1.29-9.49-1.83-14s-1-9.23-1.55-14.34c0-.21-.14-1.45-.28-2.76-.47-4.64-1-9.67-1-14.07a14,14,0,0,1,14-14Zm-7.72,69.86A4.18,4.18,0,0,1,470,72.73c.17,1,.4,2.42.73,4.28.28,1.6.54,3,.77,4.24a4.19,4.19,0,1,1-8.23,1.57c-.31-1.65-.58-3.1-.8-4.37C462.32,77.43,462.07,76,461.77,74.08Z"/><rect class="cls-4" x="434.77" y="111.11" width="69.45" height="13.25" rx="6.63"/><path class="cls-3" d="M443.17,112.74H473a3.53,3.53,0,0,1,3.52,3.52h0a3.53,3.53,0,0,1-3.52,3.52H443.17a3.53,3.53,0,0,1-3.52-3.52h0A3.53,3.53,0,0,1,443.17,112.74Z"/><path class="cls-3" d="M487.52,112.74h-4.95a3.53,3.53,0,0,0-3.52,3.52h0a3.53,3.53,0,0,0,3.52,3.52h4.95a3.53,3.53,0,0,0,3.52-3.52h0A3.53,3.53,0,0,0,487.52,112.74Z"/><rect class="cls-5" x="453.57" y="97.86" width="31.85" height="13.25" rx="6.63"/><path class="cls-6" d="M458.79,99.56h10.72a3.54,3.54,0,0,1,3.52,3.52h0a3.53,3.53,0,0,1-3.52,3.52H458.79a3.53,3.53,0,0,1-3.52-3.52h0A3.53,3.53,0,0,1,458.79,99.56Z"/><path class="cls-7" d="M477.5,99.56h0a3.25,3.25,0,0,1,3.25,3.25v.53a3.25,3.25,0,0,1-3.25,3.25h0a3.26,3.26,0,0,1-3.26-3.26v-.53A3.26,3.26,0,0,1,477.5,99.56Z"/><path class="cls-2" d="M469.49,514.9a18.21,18.21,0,0,0,18.21-18.21c0-10.06-8.15-92.9-18.21-92.9s-18.21,82.84-18.21,92.9A18.21,18.21,0,0,0,469.49,514.9Z"/><path class="cls-3" d="M469.49,510.68a4.2,4.2,0,1,0,0-8.39,5.6,5.6,0,0,1-5.6-5.6c0-4.18.49-8.88.93-13.22.06-.59.13-1.22.28-2.83q.64-6.57,1.55-14.13.86-7.18,1.79-13.83a4.18,4.18,0,1,0-8.29-1.14c-.69,4.82-1.29,9.49-1.83,14s-1,9.23-1.55,14.33c0,.22-.14,1.46-.28,2.77-.47,4.64-1,9.67-1,14.07a14,14,0,0,0,14,14Zm-7.72-69.86a4.18,4.18,0,1,0,8.26,1.34c.17-1,.4-2.41.73-4.27.28-1.6.54-3,.77-4.24a4.19,4.19,0,1,0-8.23-1.57c-.31,1.65-.58,3.1-.8,4.37C462.32,437.47,462.07,439,461.77,440.82Z"/><path class="cls-2" d="M441.39,403.79h56.2a6.65,6.65,0,0,0,6.63-6.63h0a6.66,6.66,0,0,0-6.63-6.63h-56.2a6.65,6.65,0,0,0-6.62,6.63h0A6.64,6.64,0,0,0,441.39,403.79Z"/><path class="cls-3" d="M443.17,402.16H473a3.53,3.53,0,0,0,3.52-3.52h0a3.53,3.53,0,0,0-3.52-3.52H443.17a3.53,3.53,0,0,0-3.52,3.52h0A3.53,3.53,0,0,0,443.17,402.16Z"/><path class="cls-3" d="M487.52,402.16h-4.95a3.53,3.53,0,0,1-3.52-3.52h0a3.53,3.53,0,0,1,3.52-3.52h4.95a3.53,3.53,0,0,1,3.52,3.52h0A3.53,3.53,0,0,1,487.52,402.16Z"/><path class="cls-8" d="M460.19,417h18.6a6.65,6.65,0,0,0,6.63-6.62h0a6.65,6.65,0,0,0-6.63-6.63h-18.6a6.64,6.64,0,0,0-6.62,6.63h0A6.64,6.64,0,0,0,460.19,417Z"/><path class="cls-6" d="M458.79,415.34h10.72a3.54,3.54,0,0,0,3.52-3.52h0a3.53,3.53,0,0,0-3.52-3.52H458.79a3.53,3.53,0,0,0-3.52,3.52h0A3.53,3.53,0,0,0,458.79,415.34Z"/><path class="cls-7" d="M477.5,408.3h0a3.25,3.25,0,0,1,3.25,3.25v.53a3.25,3.25,0,0,1-3.25,3.25h0a3.26,3.26,0,0,1-3.26-3.26v-.53A3.26,3.26,0,0,1,477.5,408.3Z"/><rect class="cls-9" x="441.39" y="124.37" width="56.2" height="266.17"/><rect class="cls-10" x="479.98" y="124.37" width="17.61" height="266.17"/><path class="cls-11" d="M448.71,142.27a7,7,0,1,1,14,0v29.61a7,7,0,0,1-14,0V142.27Zm0,55.07a7,7,0,1,1,14,0V368.47a7,7,0,1,1-14,0Z"/><rect class="cls-12" x="62.83" y="124.37" width="8" height="266.17"/><rect class="cls-12" x="433.4" y="124.37" width="8" height="266.17"/></g></g></svg>