<svg xmlns="http://www.w3.org/2000/svg" viewBox="0 0 343.49 519.94"><defs><style>.cls-1{fill:#963;}.cls-1,.cls-10,.cls-11,.cls-12,.cls-13,.cls-2,.cls-3,.cls-4,.cls-5,.cls-6,.cls-7,.cls-8,.cls-9{fill-rule:evenodd;}.cls-2{fill:#ab7641;}.cls-3{fill:#825323;}.cls-4{fill:#e0954a;}.cls-5{fill:#fc0;}.cls-6{fill:#ffd83b;}.cls-7{fill:#f2602b;}.cls-8{fill:#61401e;}.cls-9{fill:#e8ded0;}.cls-10{fill:#fff;}.cls-11{fill:#d6893c;}.cls-12{fill:#e8a460;}.cls-13{fill:#e6b800;}</style></defs><title>TikiTribal</title><g id="Lag_2" data-name="Lag 2"><g id="Vectorportal.com"><path class="cls-1" d="M52.3,481.72c4.75-30.56,13-59.26,26.59-85.09C75.05,319.8,27.77,227.91,67.37,166.16,42.77,125.79,23.12,77.4,8,21.67Q30.4,16,53,11.94l20.79,48L65.24,9.83A759.87,759.87,0,0,1,160.68.54l4,57.59,10.1-58c27.72-.52,55.59.31,83.59,2.29L253.3,51.92,271.22,3.43q27,2.25,54.09,5.83c-7.37,48.47-24.83,105.48-41.66,148,50.53,61.76,1.78,159.86,0,245.54A212.64,212.64,0,0,1,320,479.06C230.76,504.27,141.53,506.15,52.3,481.72Z"/><path class="cls-2" d="M52.3,481.72c4.75-30.56,13-59.26,26.59-85.09C75.05,319.8,27.77,227.91,67.37,166.16,42.77,125.79,23.12,77.4,8,21.67q18-4.53,36.08-8.05a109.92,109.92,0,0,1,13.59,9L73.8,59.9,69.14,32.67c52.24,50.87,88.43,161.22,88.43,289.16,0,64.56-9.22,124.62-25.06,174.84A486.45,486.45,0,0,1,52.3,481.72Z"/><path class="cls-2" d="M59.61,152.87C38.6,115.31,21.49,71.42,8,21.67Q30.4,16,53,11.94l20.79,48L65.24,9.83A759.87,759.87,0,0,1,160.68.54l4,57.59,10.1-58q24-.45,48.08.41A87.53,87.53,0,0,1,230.1,35.3c0,65-73.38,117.67-163.9,117.67C64,153,61.8,152.93,59.61,152.87Z"/><path class="cls-3" d="M325.31,9.26c-7.37,48.47-24.83,105.48-41.66,148,50.53,61.76,1.78,159.86,0,245.54A212.64,212.64,0,0,1,320,479.06q-21.5,6.07-43,10.32c-7.18-30.84-16.42-60.3-29.58-87.16,18.42-81.54,30.63-160.57-6.75-219.56C274.2,134.34,302.59,76.87,325.31,9.26Z"/><path class="cls-4" d="M52.58,209.79c1.77-15.64,6.26-30.34,14.79-43.63a464.36,464.36,0,0,1-31-61l4.87-14.8L86.9,127.65l18-62.57,21.1,51.7,24.75-41.54,25.45,45.88,22.67-54L220.6,125.4,258.78,64l10.43,60.22L292.43,95l10,9.11c-6,19-12.42,37.12-18.78,53.2,17.8,21.76,23.27,48,22.82,76.66Z"/><path class="cls-5" d="M132.74,230.53l-3.36,44.08a19.79,19.79,0,0,1-14.56,17.81l-9.34,2.66A19.77,19.77,0,0,0,91,312.29l-.12,1.19,91.09,12.34L229.32,317l-1.63-8.88a19.88,19.88,0,0,0-18-16.41l-13-1.13a20,20,0,0,1-18.33-19l-2.18-41.49-43.44.44ZM54.15,199.68a96,96,0,0,1,13.22-33.52,447.8,447.8,0,0,1-24.82-47l3.77-11.47,46.1,37.67,14.18-49.2,17.73,43.44,26.14-43.88,27,48.75L198.34,94.8l19.95,53.62,35-56.28,9.75,56.28,30.58-38.56,5.37,4.89c-5,15.1-10.19,29.5-15.35,42.54,14.59,17.84,20.9,38.71,22.45,61.43l-29.75,34.74L54.15,199.68ZM13.57,20.29q17-4.12,34-7.34l2.28,12.63a10.06,10.06,0,0,1-8.16,11.69l-11.34,2a10,10,0,0,1-10.93-5.82L13.57,20.29ZM77.45,8c24-3.49,48.07-5.76,72.31-6.95l-1.89,17.39a10,10,0,0,1-9.7,9L93,28.67a9.87,9.87,0,0,1-9.6-6.25L77.45,8ZM191.59,0q28.47,0,57.16,1.81l-1,25.25a10.05,10.05,0,0,1-10,9.64L198.18,37a10.06,10.06,0,0,1-10-11.4L191.59,0Zm83.52,3.77q18.56,1.61,37.16,3.85l-4.92,22.93a10,10,0,0,1-11.27,7.83L283.5,36.56a10,10,0,0,1-8.62-10Z"/><path class="cls-6" d="M132.74,230.53l-3.36,44.08a19.79,19.79,0,0,1-14.56,17.81l-9.34,2.66A19.77,19.77,0,0,0,91,312.29l-.12,1.19,29.68,4a314.2,314.2,0,0,0,57-62.57l-1.31-24.84-43.44.44ZM200.86.05a263,263,0,0,1,13.67,36.82L198.18,37a10.06,10.06,0,0,1-10-11.4L191.59,0q4.62,0,9.27.05Zm21,142.62a260.54,260.54,0,0,1-30.71,90.17l-137-33.16a96,96,0,0,1,13.22-33.52,447.8,447.8,0,0,1-24.82-47l3.77-11.47,46.1,37.67,14.18-49.2,17.73,43.44,26.14-43.88,27,48.75L198.34,94.8l19.95,53.62,3.57-5.75ZM13.57,20.29q17-4.12,34-7.34l2.28,12.63a10.06,10.06,0,0,1-8.16,11.69l-11.34,2a10,10,0,0,1-10.93-5.82L13.57,20.29ZM77.45,8c24-3.49,48.07-5.76,72.31-6.95l-1.89,17.39a10,10,0,0,1-9.7,9L93,28.67a9.87,9.87,0,0,1-9.6-6.25Z"/><path class="cls-7" d="M75,311.64a868.5,868.5,0,0,0,214.52,0c15-1.84,24.72,12.62,27.47,27.48,4.06,21.88,6.62,43.43,0,62.94-4.85,14.31-12.5,25.45-27.47,27.47-68.92,9.32-139.69,12-214.52,0-14.92-2.38-23.24-13-27.47-27.47-5-17.31-8-36.15,0-62.94C51.85,324.64,60,309.76,75,311.64Z"/><path class="cls-8" d="M72.77,330.64c-2.81,2-6,10.75-6.9,13.94-5.63,18.87-5.43,33.4,0,52.12,1.94,6.65,4.73,12.76,12.13,13.94C148,421.82,217,420,287,410.58c7.09-1,9.92-8.74,11.93-14.67,5.56-16.42,2.39-36.67-.7-53.3-.53-2.86-3.21-11.07-6.05-12a1.42,1.42,0,0,0-.29,0A889.74,889.74,0,0,1,72.77,330.64Z"/><path class="cls-9" d="M96.17,333.25l-.81,21.2a9.65,9.65,0,0,0,10,10L123,363.8a9.59,9.59,0,0,0,9.23-8.58l2.09-19.08q-19.08-1-38.13-2.89Zm-2.9,79.62q17.28,2.31,34.5,3.62L127.36,392a9.63,9.63,0,0,0-9.16-9.46l-16.14-.79A9.63,9.63,0,0,0,92,392l1.3,20.89Zm48.84,4.55q19,1,38,.94l-.42-24.78a9.65,9.65,0,0,0-9.87-9.46l-18,.43a9.63,9.63,0,0,0-9.41,9.52l-.27,23.35Zm48,.84q21.5-.37,43-2l-3.11-21.85a9.6,9.6,0,0,0-9.34-8.27l-22.13-.48a9.66,9.66,0,0,0-9.83,10.23l1.38,22.37ZM248,415q13.65-1.26,27.36-3l-1.22-22.8a9.58,9.58,0,0,0-8.69-9.07l-8-.78a9.63,9.63,0,0,0-10.56,10L248,415Zm31.37-83q-19.89,2.16-39.81,3.45l.51,22.59a9.64,9.64,0,0,0,11.62,9.21l17.67-3.71a9.51,9.51,0,0,0,7.61-8.43l2.4-23.11ZM233,335.93q-19.43,1.11-38.89,1.38l-.51,22.37a9.63,9.63,0,0,0,8.9,9.83l21,1.59a9.64,9.64,0,0,0,10.36-9.92L233,335.93Zm-48.47,1.47q-21.86.06-43.71-.94l.81,19.2a9.56,9.56,0,0,0,8.58,9.17l22.46,2.45a9.64,9.64,0,0,0,10.66-9Z"/><path class="cls-10" d="M98.53,337.22l-.6,15.55a4.29,4.29,0,0,0,4.44,4.45l17.65-.65a4.23,4.23,0,0,0,4.1-3.82l1.48-13.48q-13.56-.81-27.07-2Zm-3,69q12,1.51,24,2.54l-.31-18.57a4.27,4.27,0,0,0-4.08-4.21L99,385.21a4.29,4.29,0,0,0-4.49,4.55l1,16.49Zm49.19,4.2q13.56.62,27.13.68l-.33-19.34a4,4,0,0,0-1.32-3,4,4,0,0,0-3.07-1.19l-18,.43a4.3,4.3,0,0,0-4.19,4.24l-.21,18.2Zm47.66.47q16-.39,31.91-1.47L222,393.29a4.21,4.21,0,0,0-4.15-3.68l-22.13-.48a4.28,4.28,0,0,0-4.38,4.55l1.06,17.24Zm57.91-3.64q8.32-.81,16.65-1.8l-1-17.8a4.23,4.23,0,0,0-3.87-4l-8-.78a4.29,4.29,0,0,0-4.7,4.45l.85,20Zm20.27-71.08q-14.16,1.43-28.34,2.43l.39,17.47a4.29,4.29,0,0,0,5.17,4.1l17.67-3.71a4.16,4.16,0,0,0,3.39-3.75l1.72-16.54ZM225,339.68q-14.24.72-28.49,1l-.39,17.23a4.27,4.27,0,0,0,4,4.37l21,1.6a4.29,4.29,0,0,0,4.61-4.42L225,339.68Zm-49,1.18q-16.25,0-32.46-.69l.56,13.38a4.23,4.23,0,0,0,3.82,4.08l22.46,2.45a4,4,0,0,0,3.24-1,4,4,0,0,0,1.51-3Z"/><path class="cls-11" d="M143,245.24C99.43,267.41,42.93,253,9.41,214.38l-2.8-3.21a26.82,26.82,0,0,1,8.26-41.57l3.81-1.9c35.94-18,92.3-21.25,131.87-3.2a32.84,32.84,0,0,0,27.41.33c44.61-19.07,107.14-15,146.85,4.88l3.82,1.9a26.8,26.8,0,0,1,8.25,41.56l-2.8,3.22C294.46,262,226,277.83,176.35,246.72A33.13,33.13,0,0,0,143,245.24Z"/><path class="cls-12" d="M143,245.24C99.43,267.41,42.93,253,9.41,214.38l-2.8-3.21a26.82,26.82,0,0,1,8.26-41.57l3.81-1.9c35.94-18,92.3-21.25,131.87-3.2a32.84,32.84,0,0,0,27.41.33c31.1-13.29,70.91-15.32,105.62-8.61-16.86,39.18-54.8,72-104.63,92.07-.87-.51-1.74-1-2.6-1.57A33.13,33.13,0,0,0,143,245.24Z"/><path class="cls-8" d="M151.36,200c-28.92-23.4-88-20.94-119.22-5.32,28.74,33.09,86.93,46.72,119.22,5.32Zm20.83,2.9c33.75-27.31,102.66-24.45,139.17-6.21C277.8,235.26,209.88,251.17,172.19,202.85Z"/><path class="cls-5" d="M314.35,458.94a20.9,20.9,0,1,1,11.29,40.24c-92.81,26.22-185.75,28.14-278.82,2.66a20.85,20.85,0,0,1,11-40.24C143.17,485,228.7,483.14,314.35,458.94Z"/><path class="cls-13" d="M314.35,458.94a20.9,20.9,0,1,1,11.29,40.24c-72.94,20.61-146,26.2-219.06,15.29,70.19.74,132-9.73,173.81-46.81l1.11-.54Q297.92,463.58,314.35,458.94Z"/></g></g></svg>