<svg xmlns="http://www.w3.org/2000/svg" viewBox="0 0 373.35 184.77"><defs><style>.cls-1{fill:#d6cbc7;}.cls-1,.cls-10,.cls-11,.cls-12,.cls-13,.cls-14,.cls-15,.cls-16,.cls-17,.cls-2,.cls-3,.cls-4,.cls-5,.cls-6,.cls-7,.cls-8,.cls-9{fill-rule:evenodd;}.cls-2{fill:#e3d9d6;}.cls-3{fill:#cfc1bc;}.cls-4{fill:#2da3ca;}.cls-5{fill:#38add3;}.cls-6{fill:#2598bf;}.cls-7{fill:#c3b4ae;}.cls-8{fill:#4b8295;}.cls-9{fill:#ded5d1;}.cls-10{fill:#f7efeb;}.cls-11{fill:#e8dfdc;}.cls-12{fill:#fad08d;}.cls-13{fill:#fad79f;}.cls-14{fill:#f0c682;}.cls-15{fill:#94ac3c;}.cls-16{fill:#a2bb3a;}.cls-17{fill:#889f3c;}</style></defs><title>TreasureMap</title><g id="Lag_2" data-name="Lag 2"><g id="Vectorportal.com"><path class="cls-1" d="M76,109.71C56.22,99.51,36.48,89,16.76,78.7c-25-13.08-21.45-57.77,6.68-61L177.15.17l6.26,39.27c35.76,11.72,70.48,13.43,103.77,30.14,26.27,13.08,39.3,11.29,65,18.25a131,131,0,0,1,21.17,7.72C341.24,118,313.88,126.56,281,144c-20.69,11-36.57,25.88-59.6,36.89-10.52,5-7.39,5.25-17.5-.18-38.93-20.89-24.65-40-83-55.9C104.33,120.32,91.74,117.45,76,109.71Z"/><path class="cls-2" d="M291.29,71.56c23.59,10.93,36.57,9.68,60.89,16.27a131,131,0,0,1,21.17,7.72C341.24,118,313.88,126.56,281,144c-20.69,11-36.57,25.88-59.6,36.89-10.52,5-7.39,5.25-17.5-.18a96.42,96.42,0,0,1-14.58-9.46A61,61,0,0,0,208,160.1c32.69-29.94-8.8-52.3,24.21-65.36C248.81,88.18,271,80.46,291.29,71.56Z"/><path class="cls-3" d="M76,109.71q-15.88-8.2-31.73-16.56c2.68-.25,5.09-.39,7.08-.43,40.46-.86,60,3.94,95.92-21.89,23.88-17,44.06-19.34,64.85-23.61,16.65,3.86,33,7,49.14,12-18.79,4.74-37.49,9.11-45.72,11.06-5.79,1.39-12,2.79-17.72,4.51-29.64,10.06-44,35.3-73.48,48.14q-2,.87-4.29,1.65C103.87,120.22,91.45,117.31,76,109.71Z"/><path class="cls-4" d="M81.18,98.55c14.34,7,28.05,10.36,43.32,14.52,12.6,3.43,25.76,8,36.85,15,7.57,4.8,13.15,10.19,19,16.91a156.08,156.08,0,0,0,11.33,12.37A82.93,82.93,0,0,0,209.3,169.7c1.29.69,3,1.79,4.55,2.58,1.66-.78,3.58-1.89,5-2.58C240.11,159.54,257.51,144,278.16,133c14.24-7.57,28.86-14.1,43.44-21A372.62,372.62,0,0,0,355.48,94.2c-1.43-.45-2.87-.87-4.34-1.27-10-2.71-19.89-4.28-30-6.32a140.22,140.22,0,0,1-36.62-12.55c-12.4-6.2-25.43-10.37-38.83-13.77-21.31-5.41-42.76-9-63.74-15.88l-10.08-3.23L169,15.24,29.86,33.3a15.26,15.26,0,0,0-9.09,4.19c-10.72,10.27-12.32,23,1.3,30.11C41.77,77.92,61.42,88.35,81.18,98.55Z"/><path class="cls-5" d="M201.53,165.08c2.5,1.65,5.09,3.18,7.77,4.62,1.29.69,3,1.79,4.55,2.58,1.66-.78,3.58-1.89,5-2.58C240.11,159.54,257.51,144,278.16,133c14.24-7.57,28.86-14.1,43.44-21A372.62,372.62,0,0,0,355.48,94.2c-1.43-.45-2.87-.87-4.34-1.27-10-2.71-19.89-4.28-30-6.32a140.72,140.72,0,0,1-36.19-12.33c-18.5,7.76-37.85,14.57-52.73,20.46-33,13.06,8.48,35.42-24.21,65.36A48.74,48.74,0,0,1,201.53,165.08Z"/><path class="cls-6" d="M81.18,98.55c14.34,7,28.05,10.36,43.32,14.52,3.92,1.07,7.9,2.24,11.85,3.57,22-13.56,36.14-33.23,61.46-41.82,5.68-1.72,11.93-3.12,17.72-4.51,6.76-1.6,20.57-4.83,35.69-8.56q-2.76-.75-5.54-1.46c-15.22-3.86-30.51-6.8-45.65-10.67C183.34,53,166.5,57.16,147.26,70.83c-30,21.6-48.62,21.78-77.57,21.76Q75.44,95.59,81.18,98.55Z"/><path class="cls-7" d="M32.63,72.85C5.48,78.21-3.23,30.13,23,26.7l63.91-8.36,3.68,43.07Z"/><path class="cls-8" d="M39.61,69.76C4.39,83.14,5.44,16.57,37.16,35.06L84.07,62.7Z"/><path class="cls-9" d="M23,26.7c18.07-.81,28.83,36.09,6,40.82l54.93-10L51.5,23Z"/><path class="cls-10" d="M23.44,17.72c33.18,8.58,31,50.75,9.19,55.13l150.48-29.7c29.66-5.85,21.45-46.11-6-43Z"/><path class="cls-11" d="M47.54,57.75c-2.2,7.58-7.39,13.59-14.91,15.1l150.48-29.7c20.42-4,22.89-24.36,13.5-35.62.78,9-1.14,17.86-12.4,24.86-18.65,9.7-58.89,11.15-81.69,15.46C84.21,51.31,66,54.24,47.54,57.75Z"/><path class="cls-12" d="M169.14,62c5.64-2.07,9.59-6.63,16-8.53,8-2.39,15.29.34,21.87,4.94,10.12,7.06,5.83,5.68,18.11,6l1.29,0c9.17.26,21.26-.13,26.2,9.49a19.93,19.93,0,0,1,1.25,3c1,3.25.89,6.07,1.64,9.06.24.93.73,1.19,1.59,1.68.67.37,1.42.69,2.13,1,5.11,2.24,10,4.61,11.8,10.46,2.22,7.13-2.28,13-7.6,17.13l-.07.06-.08.06c-7.56,5.61-13.92,7.24-22.4,10.43-3.29,1.24-6,4.45-8.2,7.07-4.06,4.88-7.74,9.64-13.65,12.46a21.9,21.9,0,0,1-2.35,1,18.45,18.45,0,0,1-12.75-.09c-5.3-2-8.58-5.89-12.13-10.06-.62-.73-2.56-3.05-3.49-3.53a84.55,84.55,0,0,1-9.71-1.25l-.16,0-.16,0c-8-2-13.15-4.9-19.52-10l-.22-.17-.21-.19c-11-9.93-5.41-7.84-19.53-11.9-12.05-3.47-31.21-6.68-34.59-21.13a17.18,17.18,0,0,1,.79-10.6c4.26-10.35,18-14.69,28.3-15.53,7.19-.6,14.08.84,21.07.38,2.78-.18,5.57-.31,8.35-.51A47.83,47.83,0,0,0,169.14,62Z"/><path class="cls-13" d="M255.44,85.89l0,.19c.24.93.73,1.19,1.59,1.68.67.37,1.42.69,2.13,1,5.11,2.24,10,4.61,11.8,10.46,2.22,7.13-2.28,13-7.6,17.13l-.07.06-.08.06c-7.56,5.61-13.92,7.24-22.4,10.43-3.29,1.24-6,4.45-8.2,7.07-4.06,4.88-7.74,9.64-13.65,12.46-.19.1-.39.19-.58.27,11.17-23.26-14.09-40.93,13.79-52C239.16,92,247.08,89,255.44,85.89Z"/><path class="cls-14" d="M169.14,62c5.64-2.07,9.59-6.63,16-8.53,8-2.39,15.29.34,21.87,4.94,10.12,7.06,5.83,5.68,18.11,6l1.29,0a110.32,110.32,0,0,1,11.11.59c-9.4,2.26-17.34,4.12-22,5.22-5.79,1.39-12,2.79-17.72,4.51-22.31,7.57-36,23.74-53.91,36.75-1.35-.4-3-.86-5.13-1.47-11.6-3.34-29.79-6.44-34.15-19.57,13.17-2.46,26.19-7.87,42.64-19.7A120.48,120.48,0,0,1,160,62.88l2.67-.17A47.83,47.83,0,0,0,169.14,62Z"/><path class="cls-15" d="M165,110.73c-12.27-11.08-6.93-9.33-23.46-14.08-7.43-2.14-25.69-5.48-27.64-13.82-2.25-9.6,13.12-13.34,20.2-13.92s13.48.88,20.91.4c3.66-.25,14.45-.68,17.29-1.69,11.64-4.14,15-14.63,29-4.89,12,8.39,9,7.41,23.53,7.83l1.29,0c4.48.14,15.33-.37,17.62,4.08,2.83,5.51-.59,12.85,8.49,17.92,5.41,3,15,4.38,5.09,12-6.71,5-12.44,6.28-20,9.11-11.25,4.23-15.08,17.36-23.92,20.39-11.11,3.82-14-13.21-24-14.16a69.18,69.18,0,0,1-8.76-1.09C174,117.23,170.28,115,165,110.73Z"/><path class="cls-16" d="M247.71,88.8a13.68,13.68,0,0,0,4.5,3.8c5.41,3,14.94,4.38,5.1,12-6.72,5-12.45,6.28-20,9.11s-11.62,9.47-16.16,14.55c-1.65-14.32-8.92-25.61,11-33.51C237,92.86,242.2,90.88,247.71,88.8Z"/><path class="cls-17" d="M155.9,102.11c-2.56-2.14-4.8-2.71-14.37-5.46-5.92-1.71-18.73-4.17-24.67-9.34,9.28-3.19,19-8.29,30.4-16.48.71-.51,1.41-1,2.11-1.47a55.9,55.9,0,0,0,5.63,0c3.66-.25,14.45-.68,17.29-1.69,11.64-4.14,15-14.63,29-4.89,8.46,5.9,9.48,7.17,14.39,7.55l-.14,0c-5.79,1.39-12,2.79-17.72,4.51C180.7,80.63,168.68,91.49,155.9,102.11Z"/></g></g></svg>